P3
4 4 255
0 0 0
0 0 0
0 0 0
0 0 0
0 0 0
0 0 0
118 0 0
0 0 0
0 0 0
118 0 0
255 250 250
118 0 0
0 0 0
0 0 0
118 0 0
0 0 0
